<?xml version="1.0" encoding="UTF-8" standalone="no"?>
<!-- Created with Inkscape (http://www.inkscape.org/) -->

<svg
   xmlns:dc="http://purl.org/dc/elements/1.1/"
   xmlns:cc="http://creativecommons.org/ns#"
   xmlns:rdf="http://www.w3.org/1999/02/22-rdf-syntax-ns#"
   xmlns:svg="http://www.w3.org/2000/svg"
   xmlns="http://www.w3.org/2000/svg"
   xmlns:sodipodi="http://sodipodi.sourceforge.net/DTD/sodipodi-0.dtd"
   xmlns:inkscape="http://www.inkscape.org/namespaces/inkscape"
   width="100"
   height="100"
   viewBox="0 0 100 100"
   version="1.1"
   id="svg821"
   inkscape:version="0.92.3 (2405546, 2018-03-11)"
   sodipodi:docname="barot.svg">
  <defs
     id="defs815" />
  <sodipodi:namedview
     id="base"
     pagecolor="#ffffff"
     bordercolor="#666666"
     borderopacity="1.0"
     inkscape:pageopacity="0.0"
     inkscape:pageshadow="2"
     inkscape:zoom="1.979899"
     inkscape:cx="114.73383"
     inkscape:cy="59.444992"
     inkscape:document-units="px"
     inkscape:current-layer="layer1"
     showgrid="false"
     units="px"
     inkscape:window-width="1853"
     inkscape:window-height="1025"
     inkscape:window-x="67"
     inkscape:window-y="27"
     inkscape:window-maximized="1" />
  <metadata
     id="metadata818">
    <rdf:RDF>
      <cc:Work
         rdf:about="">
        <dc:format>image/svg+xml</dc:format>
        <dc:type
           rdf:resource="http://purl.org/dc/dcmitype/StillImage" />
        <dc:title />
      </cc:Work>
    </rdf:RDF>
  </metadata>
  <g
     inkscape:label="master"
     inkscape:groupmode="layer"
     id="layer1">
    <rect
       style="opacity:1;vector-effect:none;fill:#ffe680;fill-opacity:1;stroke:none;stroke-width:7.88732386;stroke-linecap:round;stroke-linejoin:round;stroke-miterlimit:4;stroke-dasharray:none;stroke-dashoffset:0;stroke-opacity:1;paint-order:markers fill stroke"
       id="rect812"
       width="100"
       height="100"
       x="0"
       y="0"
       ry="0"
       inkscape:export-filename="/home/daniele/hack/git/barot/pwa-barot/src/assets/icons/icon-512x512.png"
       inkscape:export-xdpi="491.51999"
       inkscape:export-ydpi="491.51999" />
    <rect
       ry="13.75"
       y="4.1071429"
       x="4.1071429"
       height="91.785713"
       width="91.785713"
       id="rect814"
       style="opacity:1;vector-effect:none;fill:#ffeeaa;fill-opacity:1;stroke:none;stroke-width:7.23943663;stroke-linecap:round;stroke-linejoin:round;stroke-miterlimit:4;stroke-dasharray:none;stroke-dashoffset:0;stroke-opacity:1;paint-order:markers fill stroke"
       inkscape:export-filename="/home/daniele/hack/git/barot/pwa-barot/src/assets/icons/icon-512x512.png"
       inkscape:export-xdpi="491.51999"
       inkscape:export-ydpi="491.51999" />
    <path
       style="fill:#000000;stroke-width:0.09830493"
       d="m 9.0708858,87.285347 v -0.39322 H 9.8573254 10.643765 V 84.363854 81.83558 l -0.568104,0.562174 c -0.6987996,0.691509 -1.0047752,0.749782 -1.0047752,0.191363 0,-0.333794 0.081165,-0.451559 0.813069,-1.17966 C 10.6107,80.68649 10.735944,80.600615 11.063614,80.600615 h 0.366591 v 3.145758 3.145754 h 0.78644 0.786438 v 0.39322 0.39322 H 11.036985 9.0708858 Z M 20.081035,87.034704 c 0,-0.369474 0.05997,-0.756989 0.140728,-0.909321 0.0774,-0.146001 0.785194,-0.906322 1.572875,-1.689605 l 1.432156,-1.424149 v -0.570996 c 0,-0.475164 -0.0405,-0.611485 -0.241298,-0.812286 -0.210816,-0.210816 -0.329334,-0.241293 -0.938362,-0.241293 -0.609028,0 -0.72755,0.03046 -0.938366,0.241293 -0.132711,0.132711 -0.241293,0.30966 -0.241293,0.39322 0,0.111712 -0.104087,0.151927 -0.39322,0.151927 -0.356584,0 -0.39322,-0.02351 -0.39322,-0.252228 0,-0.32403 0.145478,-0.602724 0.522603,-1.001161 l 0.302405,-0.31949 h 1.141091 1.141092 l 0.3024,0.31949 c 0.166323,0.175721 0.351949,0.416116 0.412507,0.534216 0.161928,0.315801 0.140322,1.85157 -0.0306,2.174049 -0.07738,0.146002 -0.740938,0.862049 -1.474577,1.591211 -0.733634,0.729161 -1.333884,1.403779 -1.333884,1.49915 0,0.157953 0.131329,0.173396 1.474572,0.173396 h 1.474577 v 0.39322 0.39322 h -1.966099 -1.9661 z m 6.098918,0.386392 c -0.363557,-0.305914 -0.59384,-0.718812 -0.59384,-1.06476 0,-0.226885 0.03729,-0.250648 0.39322,-0.250648 0.289132,0 0.393219,0.04024 0.393219,0.151927 0,0.08356 0.108582,0.260508 0.241293,0.393219 0.210816,0.210821 0.329339,0.241293 0.938367,0.241293 0.609028,0 0.727546,-0.03046 0.938362,-0.241293 0.21082,-0.210816 0.241297,-0.329338 0.241297,-0.938366 0,-0.609024 -0.03046,-0.727546 -0.241297,-0.938362 -0.222482,-0.222487 -0.314441,-0.241293 -1.179659,-0.241293 h -0.938363 v -0.39322 -0.39322 h 0.938363 c 0.865218,0 0.957177,-0.0188 1.179659,-0.241297 0.21082,-0.210816 0.241297,-0.329334 0.241297,-0.938362 0,-0.609028 -0.03046,-0.727551 -0.241297,-0.938367 -0.210816,-0.210816 -0.329334,-0.241293 -0.938362,-0.241293 -0.609028,0 -0.727551,0.03046 -0.938367,0.241293 -0.132711,0.132711 -0.241293,0.30966 -0.241293,0.39322 0,0.111712 -0.104087,0.151927 -0.393219,0.151927 -0.355942,0 -0.39322,-0.02377 -0.39322,-0.250644 0,-0.345952 0.230283,-0.75885 0.59384,-1.064764 0.288939,-0.243129 0.365397,-0.257471 1.372259,-0.257471 1.006861,0 1.083316,0.01435 1.372254,0.257471 0.476282,0.400765 0.593845,0.719864 0.593845,1.611901 0,0.817973 -0.07146,1.06285 -0.42264,1.448418 l -0.201461,0.221188 0.201461,0.221183 c 0.351182,0.385573 0.42264,0.63045 0.42264,1.448419 0,0.892037 -0.117563,1.211135 -0.593845,1.611901 -0.288938,0.243128 -0.365393,0.257471 -1.372254,0.257471 -1.006862,0 -1.08332,-0.01435 -1.372259,-0.257471 z m 8.056992,-1.315408 v -1.572875 h -1.57288 -1.572875 v -1.966099 -1.966099 h 0.393216 0.39322 v 1.572879 1.572879 h 1.179659 1.17966 v -1.572879 -1.572879 h 0.393219 0.39322 v 3.538978 3.538974 h -0.39322 -0.393219 z m 2.359318,1.179659 v -0.39322 h 1.331587 c 1.282708,0 1.340439,-0.0088 1.572879,-0.241293 0.210816,-0.210816 0.241293,-0.329338 0.241293,-0.938366 0,-0.609024 -0.03046,-0.727546 -0.241293,-0.938362 -0.23244,-0.232436 -0.290171,-0.241293 -1.572879,-0.241293 h -1.331587 v -1.966099 -1.966099 h 1.9661 1.966099 v 0.393219 0.39322 h -1.57288 -1.572879 v 1.17966 1.179659 h 1.122963 c 1.068026,0 1.137934,0.01259 1.428955,0.257471 0.489036,0.411499 0.593841,0.713045 0.593841,1.708624 0,0.995583 -0.104805,1.29713 -0.593841,1.708628 -0.301155,0.253403 -0.329945,0.257471 -1.822175,0.257471 h -1.516183 z m 6.098918,0.135749 c -0.577059,-0.485562 -0.59384,-0.578305 -0.59384,-3.281503 0,-2.703198 0.01677,-2.795945 0.59384,-3.281507 0.288939,-0.243129 0.365393,-0.257471 1.372259,-0.257471 1.006862,0 1.083316,0.01435 1.372255,0.257471 0.363561,0.305914 0.59384,0.718812 0.59384,1.064764 0,0.22688 -0.03729,0.250644 -0.39322,0.250644 -0.289132,0 -0.39322,-0.04024 -0.39322,-0.151927 0,-0.08356 -0.108582,-0.260509 -0.241293,-0.39322 -0.210816,-0.210816 -0.329338,-0.241293 -0.938362,-0.241293 -0.609028,0 -0.72755,0.03046 -0.938366,0.241293 -0.222487,0.222482 -0.241293,0.314446 -0.241293,1.17966 v 0.938366 h 1.122962 c 1.068027,0 1.137935,0.01259 1.428952,0.257471 0.491597,0.413651 0.593884,0.711531 0.593474,1.72832 -3.91e-4,1.037519 -0.151341,1.408828 -0.711446,1.750326 -0.264128,0.161039 -0.496005,0.195408 -1.320471,0.195712 -0.93573,3.91e-4 -1.019773,-0.0162 -1.306071,-0.257106 z m 2.310621,-0.770262 c 0.210821,-0.210816 0.241293,-0.329338 0.241293,-0.938366 0,-0.609024 -0.03046,-0.727546 -0.241293,-0.938362 -0.222482,-0.222487 -0.314441,-0.241293 -1.179659,-0.241293 h -0.938362 v 0.938362 c 0,0.865218 0.0188,0.957177 0.241293,1.179659 0.210816,0.210821 0.329338,0.241293 0.938366,0.241293 0.609024,0 0.727546,-0.03046 0.938362,-0.241293 z m 3.387052,0.486271 c 0,-0.495348 0.100473,-0.742272 1.179659,-2.899209 0.64881,-1.29676 1.179658,-2.468694 1.179658,-2.604292 v -0.24655 h -1.572878 -1.572879 v -0.39322 -0.393219 h 1.966099 1.966098 v 0.836379 0.836379 l -1.179659,2.357743 c -0.835088,1.66906 -1.179659,2.458475 -1.179659,2.702599 0,0.336791 -0.0092,0.344852 -0.393219,0.344852 h -0.39322 z m 9.244675,0.283991 c -0.489229,-0.411661 -0.59384,-0.712931 -0.59384,-1.710209 0,-0.913366 0.0661,-1.15527 0.42264,-1.546721 l 0.201461,-0.221183 -0.201461,-0.221188 c -0.346213,-0.380105 -0.422654,-0.628076 -0.422275,-1.369807 3.92e-4,-0.826945 0.187453,-1.235814 0.711442,-1.555296 0.464449,-0.283176 2.044125,-0.283176 2.508574,0 0.523994,0.319482 0.711024,0.728351 0.711447,1.555296 3.92e-4,0.741731 -0.07607,0.989702 -0.422275,1.369807 l -0.201461,0.221188 0.201461,0.221183 c 0.35654,0.391451 0.42264,0.633355 0.42264,1.546721 0,0.997278 -0.104611,1.298548 -0.59384,1.710209 -0.288939,0.243128 -0.365393,0.257471 -1.372259,0.257471 -1.006861,0 -1.083315,-0.01435 -1.372254,-0.257471 z m 2.310621,-0.770262 c 0.210816,-0.210816 0.241293,-0.329338 0.241293,-0.938366 0,-0.609024 -0.03046,-0.727546 -0.241293,-0.938362 -0.210816,-0.210821 -0.329339,-0.241293 -0.938367,-0.241293 -0.609028,0 -0.727546,0.03046 -0.938362,0.241293 -0.21082,0.210816 -0.241297,0.329338 -0.241297,0.938362 0,0.609028 0.03046,0.72755 0.241297,0.938366 0.210816,0.210821 0.329334,0.241293 0.938362,0.241293 0.609028,0 0.727551,-0.03046 0.938367,-0.241293 z m -0.09294,-3.238699 c 0.307591,-0.307596 0.334234,-0.38239 0.334234,-0.938366 0,-0.510347 -0.03746,-0.641583 -0.241293,-0.845422 -0.210816,-0.210816 -0.329339,-0.241293 -0.938367,-0.241293 -0.609028,0 -0.727546,0.03046 -0.938362,0.241293 -0.203838,0.203839 -0.241297,0.335075 -0.241297,0.845422 0,0.555976 0.02663,0.63077 0.334238,0.938366 0.294411,0.294411 0.395148,0.334238 0.845421,0.334238 0.450278,0 0.551015,-0.03984 0.845426,-0.334238 z m 3.287393,4.008961 c -0.363557,-0.305914 -0.59384,-0.718812 -0.59384,-1.06476 0,-0.226885 0.03729,-0.250648 0.39322,-0.250648 0.289132,0 0.393219,0.04024 0.393219,0.151927 0,0.08356 0.108582,0.260508 0.241293,0.393219 0.210821,0.210821 0.329339,0.241293 0.938367,0.241293 0.609028,0 0.727546,-0.03046 0.938366,-0.241293 0.222482,-0.222482 0.241293,-0.314441 0.241293,-1.179659 v -0.938362 h -1.122962 c -1.068027,0 -1.137935,-0.01259 -1.428956,-0.257476 -0.491593,-0.413646 -0.59388,-0.71153 -0.59347,-1.728319 3.91e-4,-1.037519 0.151336,-1.408824 0.711442,-1.750326 0.264128,-0.16104 0.496004,-0.195408 1.320471,-0.195712 0.935729,-3.92e-4 1.019773,0.0162 1.306075,0.257106 0.577054,0.485562 0.59384,0.578309 0.59384,3.281507 0,2.703198 -0.01677,2.795941 -0.59384,3.281503 -0.288943,0.243128 -0.365398,0.257471 -1.372259,0.257471 -1.006862,0 -1.083316,-0.01435 -1.372259,-0.257471 z m 2.551918,-4.613089 c 0,-0.865214 -0.0188,-0.957178 -0.241293,-1.17966 -0.21082,-0.210816 -0.329338,-0.241293 -0.938366,-0.241293 -0.609028,0 -0.727546,0.03046 -0.938367,0.241293 -0.210816,0.210816 -0.241293,0.329339 -0.241293,0.938367 0,0.609028 0.03046,0.727546 0.241293,0.938362 0.222487,0.222486 0.314446,0.241297 1.17966,0.241297 h 0.938366 z m 2.953159,4.613089 c -0.577058,-0.485562 -0.59384,-0.578305 -0.59384,-3.281503 0,-2.703198 0.01677,-2.795945 0.59384,-3.281507 0.288939,-0.243129 0.365394,-0.257471 1.372259,-0.257471 1.006862,0 1.083316,0.01435 1.372255,0.257471 0.577059,0.485562 0.59384,0.578309 0.59384,3.281507 0,2.703198 -0.01677,2.795941 -0.59384,3.281503 -0.288939,0.243128 -0.365393,0.257471 -1.372255,0.257471 -1.006865,0 -1.08332,-0.01435 -1.372259,-0.257471 z m 2.31062,-0.770262 0.241293,-0.241293 V 84.139593 81.86964 L 70.9583,81.628347 c -0.210816,-0.210816 -0.329338,-0.241293 -0.938362,-0.241293 -0.609028,0 -0.72755,0.03046 -0.938366,0.241293 l -0.241293,0.241293 v 2.269953 2.269948 l 0.241293,0.241293 c 0.210816,0.210821 0.329338,0.241293 0.938366,0.241293 0.609024,0 0.727546,-0.03046 0.938362,-0.241293 z m 2.600612,0.634513 v -0.39322 h 0.78644 0.78644 V 84.363854 81.83558 l -0.568105,0.562174 c -0.698799,0.691509 -1.004775,0.749782 -1.004775,0.191363 0,-0.333794 0.08117,-0.451559 0.813069,-1.17966 0.726745,-0.722967 0.85199,-0.808842 1.17966,-0.808842 h 0.36659 v 3.145758 3.145754 h 0.78644 0.78644 v 0.39322 0.39322 h -1.966099 -1.9661 z m 5.505078,-0.250643 c 0,-0.369474 0.05997,-0.756989 0.140723,-0.909321 0.0774,-0.146001 0.785198,-0.906322 1.572879,-1.689605 l 1.432157,-1.424149 v -0.570996 c 0,-0.475164 -0.0405,-0.611485 -0.241298,-0.812286 -0.210816,-0.210816 -0.329334,-0.241293 -0.938362,-0.241293 -0.609028,0 -0.72755,0.03046 -0.938366,0.241293 -0.132711,0.132711 -0.241293,0.30966 -0.241293,0.39322 0,0.111712 -0.104088,0.151927 -0.39322,0.151927 -0.356584,0 -0.39322,-0.02351 -0.39322,-0.252228 0,-0.32403 0.145477,-0.602724 0.522603,-1.001161 l 0.302405,-0.31949 h 1.141091 1.141091 l 0.302401,0.31949 c 0.166322,0.175721 0.351949,0.416116 0.412506,0.534216 0.161929,0.315801 0.140323,1.85157 -0.0306,2.174049 -0.07738,0.146002 -0.740938,0.862049 -1.474577,1.591211 -0.733634,0.729161 -1.333884,1.403779 -1.333884,1.49915 0,0.157953 0.131328,0.173396 1.474572,0.173396 h 1.474576 v 0.39322 0.39322 H 81.03008 79.063981 Z m 6.098918,0.386392 c -0.489234,-0.411661 -0.593845,-0.712931 -0.593845,-1.710209 0,-0.913366 0.0661,-1.15527 0.42264,-1.546721 l 0.201461,-0.221183 -0.201461,-0.221188 c -0.346208,-0.380105 -0.422649,-0.628076 -0.42227,-1.369807 3.92e-4,-0.826945 0.187453,-1.235814 0.711442,-1.555296 0.464449,-0.283176 2.044125,-0.283176 2.508574,0 0.523994,0.319482 0.711024,0.728351 0.711447,1.555296 3.92e-4,0.741731 -0.07607,0.989702 -0.422275,1.369807 l -0.201461,0.221188 0.201461,0.221183 c 0.35654,0.391451 0.42264,0.633355 0.42264,1.546721 0,0.997278 -0.104611,1.298548 -0.59384,1.710209 -0.288939,0.243128 -0.365393,0.257471 -1.372259,0.257471 -1.006861,0 -1.083316,-0.01435 -1.372254,-0.257471 z m 2.310621,-0.770262 c 0.210816,-0.210816 0.241293,-0.329338 0.241293,-0.938366 0,-0.609024 -0.03046,-0.727546 -0.241293,-0.938362 -0.210816,-0.210821 -0.329339,-0.241293 -0.938367,-0.241293 -0.609028,0 -0.727546,0.03046 -0.938362,0.241293 -0.21082,0.210816 -0.241297,0.329338 -0.241297,0.938362 0,0.609028 0.03046,0.72755 0.241297,0.938366 0.210816,0.210821 0.329334,0.241293 0.938362,0.241293 0.609028,0 0.727551,-0.03046 0.938367,-0.241293 z m -0.09294,-3.238699 c 0.307591,-0.307596 0.334234,-0.38239 0.334234,-0.938366 0,-0.510347 -0.03746,-0.641583 -0.241293,-0.845422 -0.210816,-0.210816 -0.329339,-0.241293 -0.938367,-0.241293 -0.609028,0 -0.727546,0.03046 -0.938362,0.241293 -0.203838,0.203839 -0.241297,0.335075 -0.241297,0.845422 0,0.555976 0.02663,0.63077 0.334238,0.938366 0.294411,0.294411 0.395148,0.334238 0.845421,0.334238 0.450278,0 0.551015,-0.03984 0.845426,-0.334238 z m -70.445312,-20.948779 0,-9.666265 h 0.393219 0.39322 l 0,9.666265 v 21.283017 h -0.39322 -0.393219 z m 1.572879,0 0,-9.666265 h 0.39322 0.39322 l 0,9.666265 v 21.283017 h -0.39322 -0.39322 z m 34.603334,0 0,-9.666265 h 0.39322 0.39322 l 0,9.666265 v 21.283017 h -0.39322 -0.39322 z m 1.57288,0 0,-9.666265 h 0.393219 0.39322 l 0,9.666265 v 21.283017 h -0.39322 -0.393219 z m 34.603331,0 0,-9.666265 h 0.39322 0.39322 l 0,9.666265 v 21.283017 h -0.39322 -0.39322 z m 1.572879,0 0,-9.666265 h 0.39322 0.39322 l 0,9.666265 V 83.746373 H 91.2538 90.86058 Z m -69.993105,-1.966099 0,-7.700166 h 0.39322 0.39322 l 0,7.700166 v 19.316918 h -0.39322 -0.39322 z m 2.359319,0 0,-7.700166 h 0.786439 0.78644 l 0,7.700166 v 19.316918 h -0.78644 -0.786439 z m 2.359319,0 0,-7.700166 h 1.572879 1.572879 l 0,7.700166 v 19.316918 h -1.572879 -1.572879 z m 3.932198,0 0,-7.700166 h 0.39322 0.39322 l 0,7.700166 v 19.316918 h -0.39322 -0.39322 z m 2.359315,0 0,-7.700166 h 1.179659 1.17966 l 0,7.700166 v 19.316918 h -1.17966 -1.179659 z m 3.145758,0 0,-7.700166 h 0.39322 0.39322 l 0,7.700166 v 19.316918 h -0.39322 -0.39322 z m 1.572879,0 0,-7.700166 h 0.78644 0.78644 l 0,7.700166 v 19.316918 h -0.78644 -0.78644 z m 3.932199,0 0,-7.700166 h 0.39322 0.393219 l 0,7.700166 v 19.316918 h -0.393219 -0.39322 z m 3.932194,0 0,-7.700166 h 0.393219 0.39322 l 0,7.700166 v 19.316918 h -0.39322 -0.393219 z m 1.572879,0 0,-7.700166 h 0.39322 0.393219 l 0,7.700166 v 19.316918 h -0.393219 -0.39322 z m 2.359319,0 0,-7.700166 h 0.39322 0.393219 l 0,7.700166 v 19.316918 h -0.393219 -0.39322 z m 3.145757,0 0,-7.700166 h 0.39322 0.39322 l 0,7.700166 v 19.316918 h -0.39322 -0.39322 z m 4.718638,0 0,-7.700166 h 0.39322 0.39322 l 0,7.700166 v 19.316918 h -0.39322 -0.39322 z m 2.359314,0 0,-7.700166 h 0.39322 0.39322 l 0,7.700166 v 19.316918 h -0.39322 -0.39322 z m 3.145759,0 0,-7.700166 h 1.17966 1.179659 l 0,7.700166 v 19.316918 h -1.179659 -1.17966 z m 3.145759,0 0,-7.700166 h 0.393219 0.39322 l 0,7.700166 V 79.814175 H 65.3013 64.908081 Z m 2.359319,0 0,-7.700166 h 1.179659 1.17966 l 0,7.700166 V 79.814175 H 68.447059 67.2674 Z m 3.932193,0 0,-7.700166 h 0.39322 0.39322 l 0,7.700166 v 19.316918 h -0.39322 -0.39322 z m 1.57288,0 0,-7.700166 h 0.786439 0.78644 l 0,7.700166 v 19.316918 h -0.78644 -0.786439 z m 3.145758,0 0,-7.700166 h 0.78644 0.78644 l 0,7.700166 v 19.316918 h -0.78644 -0.78644 z m 2.359319,0 0,-7.700166 h 0.78644 0.78644 l 0,7.700166 v 19.316918 h -0.78644 -0.78644 z m 2.359319,0 0,-7.700166 h 0.78644 0.78644 l 0,7.700166 v 19.316918 h -0.78644 -0.78644 z m 3.145754,0 0,-7.700166 h 0.39322 0.39322 l 0,7.700166 v 19.316918 h -0.39322 -0.39322 z m 2.359319,0 0,-7.700166 h 0.39322 0.39322 l 0,7.700166 v 19.316918 h -0.39322 -0.39322 z"
       id="path827"
       inkscape:connector-curvature="0"
       sodipodi:nodetypes="cccccccsssccccccccccccccscscsssccccccccsscccccccssscscscscccscscscssscscssccscsccccccccccccccccccccccccscscscccccccccccscscscccscscssssscscsccccccscscscscssscccccccccssscscscccccsccccscsccscscscsccscscscsccssssscscscccccscscscscscscscscscscscccccsscccccsccccccccscsccccccccccccccscscsssccccccccsscccccccscccccsccccscsccscscscsccscscscsccccccccccccccccccccccccccccccccccccccccccccccccccccccccccccccccccccccccccccccccccccccccccccccccccccccccccccccccccccccccccccccccccccccccccccccccccccccccccccccccccccccccccccccccccccccccccccccccccccccccccccccccccccccccccccccccccccccccccccccccccccccccccccccccccccccccccccccc"
       inkscape:export-filename="/home/daniele/hack/git/barot/pwa-barot/src/assets/icons/icon-512x512.png"
       inkscape:export-xdpi="491.51999"
       inkscape:export-ydpi="491.51999" />
    <path
       style="opacity:1;vector-effect:none;fill:#000000;fill-opacity:1;stroke:none;stroke-width:1.35337067;stroke-linecap:round;stroke-linejoin:round;stroke-miterlimit:4;stroke-dasharray:none;stroke-dashoffset:0;stroke-opacity:1;paint-order:markers fill stroke"
       d="M 11.505859 11.542969 L 11.505859 19.542969 L 11.505859 27.542969 L 16.853516 27.542969 L 16.853516 48.882812 L 16.935547 48.882812 L 16.935547 52.544922 L 91.578125 52.544922 L 91.578125 44.544922 L 91.578125 36.544922 L 83.578125 36.544922 L 83.578125 44.544922 L 78.25 44.544922 L 78.25 36.544922 L 70.25 36.544922 L 70.25 44.544922 L 64.921875 44.544922 L 64.921875 36.544922 L 56.921875 36.544922 L 56.921875 44.544922 L 51.591797 44.544922 L 51.591797 36.544922 L 43.591797 36.544922 L 43.591797 44.544922 L 40.814453 44.544922 L 40.814453 27.542969 L 46.162109 27.542969 L 46.162109 19.542969 L 46.162109 11.542969 L 38.162109 11.542969 L 38.162109 19.542969 L 32.833984 19.542969 L 32.833984 11.542969 L 24.833984 11.542969 L 24.833984 19.542969 L 19.505859 19.542969 L 19.505859 11.542969 L 11.505859 11.542969 z "
       id="rect829"
       inkscape:export-filename="/home/daniele/hack/git/barot/pwa-barot/src/assets/icons/icon-512x512.png"
       inkscape:export-xdpi="491.51999"
       inkscape:export-ydpi="491.51999" />
  </g>
</svg>
